<?xml version="1.0" encoding="utf-8"?>
<!-- Generator: Adobe Illustrator 22.0.1, SVG Export Plug-In . SVG Version: 6.00 Build 0)  -->
<svg version="1.1" baseProfile="tiny" id="Layer_1" xmlns="http://www.w3.org/2000/svg" xmlns:xlink="http://www.w3.org/1999/xlink"
	 x="0px" y="0px" viewBox="0 0 468.8 253.2" xml:space="preserve">
<rect x="0.5" y="0.5" fill="#E2ECF8" stroke="#000000" stroke-miterlimit="10" width="467.8" height="252.2"/>
<text transform="matrix(1 0 0 1 25.7519 81.9694)" font-family="'MyriadPro-Regular'" font-size="60.2136px">SITE STUFF HERE</text>
<line fill="none" stroke="#000000" stroke-width="11" stroke-miterlimit="10" x1="28.1" y1="112.3" x2="440.7" y2="112.3"/>
<line fill="none" stroke="#000000" stroke-width="11" stroke-miterlimit="10" x1="0.5" y1="242.7" x2="468.3" y2="242.7"/>
<text transform="matrix(1 0 0 1 72.6897 187.5002)" font-family="'TimesNewRomanPSMT'" font-size="20px">S</text>
<text transform="matrix(1 0 0 1 83.8127 187.5002)" font-family="'TimesNewRomanPSMT'" font-size="20px">u</text>
<text transform="matrix(1 0 0 1 93.8127 187.5002)" font-family="'TimesNewRomanPSMT'" font-size="20px">b</text>
<text transform="matrix(1 0 0 1 103.8127 187.5002)" font-family="'TimesNewRomanPSMT'" font-size="20px"> </text>
<text transform="matrix(1 0 0 1 108.8127 187.5002)" font-family="'TimesNewRomanPSMT'" font-size="20px">h</text>
<text transform="matrix(1 0 0 1 118.8127 187.5002)" font-family="'TimesNewRomanPSMT'" font-size="20px">e</text>
<text transform="matrix(1 0 0 1 127.6897 187.5002)" font-family="'TimesNewRomanPSMT'" font-size="20px">a</text>
<text transform="matrix(1 0 0 1 136.5666 187.5002)" font-family="'TimesNewRomanPSMT'" font-size="20px">d</text>
<text transform="matrix(1 0 0 1 146.5666 187.5002)" font-family="'TimesNewRomanPSMT'" font-size="20px">e</text>
<text transform="matrix(1 0 0 1 155.4436 187.5002)" font-family="'TimesNewRomanPSMT'" font-size="20px">r</text>
<text transform="matrix(1 0 0 1 162.1037 187.5002)" font-family="'TimesNewRomanPSMT'" font-size="20px"> </text>
<text transform="matrix(1 0 0 1 167.1037 187.5002)" font-family="'TimesNewRomanPSMT'" font-size="20px">i</text>
<text transform="matrix(1 0 0 1 172.6604 187.5002)" font-family="'TimesNewRomanPSMT'" font-size="20px">n</text>
<text transform="matrix(1 0 0 1 182.6604 187.5002)" font-family="'TimesNewRomanPSMT'" font-size="20px"> </text>
<text transform="matrix(1 0 0 1 187.6604 187.5002)" font-family="'TimesNewRomanPSMT'" font-size="20px">a</text>
<text transform="matrix(1 0 0 1 196.5373 187.5002)" font-family="'TimesNewRomanPSMT'" font-size="20px"> </text>
<text transform="matrix(1 0 0 1 201.5373 187.5002)" font-family="'TimesNewRomanPSMT'" font-size="20px">m</text>
<text transform="matrix(1 0 0 1 217.094 187.5002)" font-family="'TimesNewRomanPSMT'" font-size="20px">u</text>
<text transform="matrix(1 0 0 1 227.094 187.5002)" font-family="'TimesNewRomanPSMT'" font-size="20px">c</text>
<text transform="matrix(1 0 0 1 235.9709 187.5002)" font-family="'TimesNewRomanPSMT'" font-size="20px">h</text>
<text transform="matrix(1 0 0 1 245.9709 187.5002)" font-family="'TimesNewRomanPSMT'" font-size="20px"> </text>
<text transform="matrix(1 0 0 1 250.9709 187.5002)" font-family="'TimesNewRomanPSMT'" font-size="20px">d</text>
<text transform="matrix(1 0 0 1 260.9709 187.5002)" font-family="'TimesNewRomanPSMT'" font-size="20px">i</text>
<text transform="matrix(1 0 0 1 266.5276 187.5002)" font-family="'TimesNewRomanPSMT'" font-size="20px">f</text>
<text transform="matrix(1 0 0 1 272.8264 187.5002)" font-family="'TimesNewRomanPSMT'" font-size="20px">f</text>
<text transform="matrix(1 0 0 1 279.4865 187.5002)" font-family="'TimesNewRomanPSMT'" font-size="20px">e</text>
<text transform="matrix(1 0 0 1 288.3635 187.5002)" font-family="'TimesNewRomanPSMT'" font-size="20px">r</text>
<text transform="matrix(1 0 0 1 295.0237 187.5002)" font-family="'TimesNewRomanPSMT'" font-size="20px">e</text>
<text transform="matrix(1 0 0 1 303.9006 187.5002)" font-family="'TimesNewRomanPSMT'" font-size="20px">n</text>
<text transform="matrix(1 0 0 1 313.9006 187.5002)" font-family="'TimesNewRomanPSMT'" font-size="20px">t</text>
<text transform="matrix(1 0 0 1 319.4572 187.5002)" font-family="'TimesNewRomanPSMT'" font-size="20px"> </text>
<text transform="matrix(1 0 0 1 324.4572 187.5002)" font-family="'TimesNewRomanPSMT'" font-size="20px">f</text>
<text transform="matrix(1 0 0 1 331.1174 187.5002)" font-family="'TimesNewRomanPSMT'" font-size="20px">o</text>
<text transform="matrix(1 0 0 1 341.1174 187.5002)" font-family="'TimesNewRomanPSMT'" font-size="20px">n</text>
<text transform="matrix(1 0 0 1 351.1174 187.5002)" font-family="'TimesNewRomanPSMT'" font-size="20px">t</text>
<text transform="matrix(1 0 0 1 356.674 187.5002)" font-family="'TimesNewRomanPSMT'" font-size="20px"> </text>
<text transform="matrix(1 0 0 1 361.674 187.5002)" font-family="'TimesNewRomanPSMT'" font-size="20px">h</text>
<text transform="matrix(1 0 0 1 371.674 187.5002)" font-family="'TimesNewRomanPSMT'" font-size="20px">e</text>
<text transform="matrix(1 0 0 1 380.551 187.5002)" font-family="'TimesNewRomanPSMT'" font-size="20px">r</text>
<text transform="matrix(1 0 0 1 387.2112 187.5002)" font-family="'TimesNewRomanPSMT'" font-size="20px">e</text>
</svg>
